<svg xmlns="http://www.w3.org/2000/svg" viewBox="300 380 1800 660" preserveAspectRatio="xMidYMid meet">
  <g transform="translate(0,1536) scale(0.1,-0.1)" fill="#F2F2F3" stroke="none">
    <path d="M6755 10493 c-903 -84 -2215 -842 -3138 -1811 -446 -469 -684 -903 -637 -1162 16 -86 48 -146 109 -203 103 -96 224 -131 451 -131 222 0 409 33 738 130 512 150 1119 418 2010 886 72 38 132 66 132 63 0 -4 -19 -35 -43 -69 -44 -62 -219 -337 -364 -571 -44 -71 -140 -227 -213 -345 -73 -118 -140 -223 -149 -232 -12 -14 -68 -25 -241 -48 -1493 -198 -2576 -516 -3148 -923 -202 -143 -315 -303 -315 -446 0 -55 6 -81 27 -125 142 -290 814 -404 1536 -261 458 91 894 297 1275 601 272 217 602 593 860 982 37 56 71 102 75 102 4 0 122 13 261 30 586 68 1344 128 2014 160 935 43 1400 52 3211 59 1625 6 1672 7 1693 25 30 27 27 64 -5 76 -34 13 -2321 13 -3134 0 -1590 -25 -2665 -84 -3740 -204 -118 -14 -216 -23 -218 -21 -5 5 508 825 619 990 48 72 119 176 158 233 75 109 86 146 53 175 -26 24 -74 21 -130 -6 -26 -13 -227 -116 -447 -230 -877 -452 -1461 -700 -1965 -831 -231 -60 -365 -80 -545 -81 -143 0 -168 3 -234 24 -96 32 -149 72 -184 141 -26 51 -28 62 -24 145 3 77 10 106 45 195 247 625 1256 1556 2282 2105 766 410 1490 567 1825 397 183 -93 217 -248 105 -477 -74 -150 -280 -403 -462 -568 -91 -82 -106 -108 -83 -143 11 -18 25 -24 50 -24 30 0 49 14 157 119 366 353 544 654 525 884 -15 175 -144 308 -352 361 -121 31 -297 42 -440 29z m-1261 -3680 c-383 -556 -752 -912 -1202 -1162 -509 -282 -1167 -412 -1699 -335 -288 41 -491 144 -523 264 -25 92 11 173 124 285 414 410 1489 766 2986 990 144 21 337 49 373 54 5 1 -22 -43 -59 -96z"/>
    <path d="M14105 10214 c-211 -109 -695 -653 -1060 -1189 -118 -174 -196 -285 -199 -285 -2 0 12 55 31 123 91 326 127 540 104 610 -19 56 -71 73 -129 43 -92 -49 -278 -304 -616 -845 -365 -584 -532 -817 -724 -1010 -66 -67 -111 -120 -108 -128 10 -24 62 -14 122 26 167 109 377 389 812 1086 230 368 422 643 503 720 l41 40 -5 -60 c-7 -82 -53 -271 -142 -585 -75 -264 -86 -325 -63 -348 22 -22 63 -13 95 21 17 17 89 122 160 232 324 503 612 880 898 1173 131 135 274 262 295 262 35 0 -157 -532 -385 -1070 -30 -69 -101 -237 -159 -375 -58 -137 -142 -335 -186 -440 -110 -256 -252 -612 -307 -765 -139 -390 -158 -609 -62 -708 45 -45 119 -63 119 -27 0 7 -7 15 -15 18 -28 11 -58 89 -63 162 -12 201 108 543 550 1570 449 1042 628 1516 628 1667 0 84 -61 121 -135 82z"/>
    <path d="M8727 9398 c-251 -273 -577 -672 -910 -1115 -150 -200 -153 -202 -352 -309 -114 -61 -185 -87 -204 -75 -20 13 -4 52 65 162 35 57 64 111 64 120 0 9 -9 24 -20 34 -11 10 -20 23 -20 30 0 6 -12 22 -26 36 -34 32 -145 39 -230 14 -216 -63 -484 -286 -549 -457 -22 -60 -8 -111 38 -134 71 -37 199 12 427 164 74 50 136 89 138 88 1 -2 -3 -17 -9 -35 -15 -42 -4 -97 24 -116 53 -37 176 -6 331 85 37 22 70 40 72 40 2 0 -12 -24 -32 -54 -30 -46 -34 -58 -24 -75 7 -14 21 -21 40 -21 22 0 50 20 126 91 182 169 446 319 561 319 65 0 -5 -101 -157 -224 -57 -47 -86 -61 -240 -116 -273 -97 -376 -157 -368 -211 8 -60 86 -55 254 17 103 43 111 48 249 127 74 42 503 202 514 191 2 -2 -18 -30 -45 -61 -104 -121 -123 -160 -92 -191 31 -31 59 -13 172 104 116 122 240 227 311 265 l42 23 54 -23 c45 -20 65 -23 126 -18 76 6 85 1 55 -27 -35 -31 -76 -127 -80 -185 -3 -47 0 -61 19 -85 63 -80 203 -73 468 24 l111 41 42 -44 c61 -63 124 -77 244 -53 107 21 236 70 373 142 57 29 105 53 106 51 1 -1 -2 -37 -8 -81 -23 -185 46 -343 178 -405 60 -28 166 -38 219 -19 61 20 55 34 -18 41 -89 8 -158 40 -206 95 -49 55 -70 121 -70 221 0 75 29 225 46 240 5 4 52 40 105 78 385 283 846 802 970 1094 68 160 39 249 -83 249 -253 -1 -826 -694 -1053 -1273 -50 -127 -55 -132 -240 -222 -153 -75 -253 -107 -353 -113 -70 -4 -86 -2 -102 13 -11 10 -20 22 -20 26 0 5 24 18 53 31 217 92 347 202 347 294 0 34 -5 47 -26 63 -32 25 -93 28 -154 6 -112 -39 -264 -174 -318 -282 -30 -59 -32 -60 -104 -86 -197 -70 -331 -97 -380 -78 -65 25 -11 137 151 314 45 48 81 96 81 107 0 11 -11 27 -24 35 -22 15 -28 15 -53 2 -15 -9 -43 -31 -62 -51 -67 -70 -232 -95 -316 -48 -30 16 -48 20 -74 16 l-35 -7 22 28 c27 35 28 71 2 85 -29 15 -62 -5 -145 -90 -38 -39 -90 -82 -115 -95 -55 -28 -320 -128 -326 -122 -2 2 11 21 30 43 47 55 69 102 69 148 0 32 -6 45 -32 68 -27 24 -40 28 -92 28 -76 0 -182 -35 -308 -101 -52 -27 -96 -47 -98 -45 -5 5 144 208 294 400 158 201 364 450 578 695 165 190 183 219 153 249 -29 29 -56 12 -151 -90z m2811 -84 c9 -94 -236 -444 -531 -758 -146 -156 -398 -378 -413 -364 -10 11 151 313 236 442 205 312 479 612 635 694 52 28 69 24 73 -14z m-4289 -1113 c23 -15 7 -35 -81 -104 -187 -146 -436 -297 -490 -297 -62 0 35 136 178 250 68 55 194 126 257 146 49 15 116 17 136 5z m2791 -30 c-24 -45 -231 -184 -248 -166 -11 11 121 131 175 159 60 32 88 34 73 7z"/>
    <path d="M15341 8864 c-47 -42 -60 -84 -37 -119 42 -65 185 6 186 92 0 42 -23 63 -71 63 -31 0 -47 -8 -78 -36z"/>
    <path d="M9564 8726 c-59 -26 -96 -101 -70 -141 30 -45 107 -28 160 35 31 38 33 73 6 100 -23 23 -52 25 -96 6z"/>
    <path d="M19625 8479 c-175 -76 -439 -180 -530 -209 -113 -36 -265 -73 -271 -67 -3 2 0 16 6 31 39 105 -33 216 -141 216 -48 0 -118 -25 -149 -54 -14 -13 -45 -33 -70 -44 -25 -12 -76 -47 -115 -77 -74 -59 -315 -184 -480 -249 -203 -79 -368 -110 -408 -77 -23 19 -21 68 4 116 64 119 263 292 354 307 15 2 20 -3 21 -22 2 -48 4 -50 37 -50 76 0 112 106 54 156 -23 19 -39 24 -85 24 -100 0 -199 -58 -353 -207 -87 -84 -108 -98 -235 -162 -227 -113 -400 -173 -506 -175 -72 -1 -94 16 -84 67 20 105 249 332 357 354 30 6 32 5 25 -20 -4 -17 -1 -31 10 -41 19 -19 18 -19 53 -2 49 26 66 95 34 135 -63 78 -242 18 -403 -135 -47 -44 -196 -94 -304 -102 l-79 -5 7 24 c4 13 10 47 13 75 7 70 -14 110 -74 136 -100 44 -238 -6 -386 -141 -88 -80 -218 -160 -408 -250 -126 -60 -281 -113 -317 -109 -63 7 -31 94 95 258 144 187 138 177 125 205 -9 19 -19 25 -42 25 -24 0 -42 -12 -81 -52 -28 -29 -62 -67 -76 -85 -67 -87 -481 -289 -631 -309 -65 -8 -92 6 -92 49 0 40 43 133 104 223 52 78 59 118 23 135 -13 6 -28 23 -34 39 -24 64 -142 92 -273 66 -181 -37 -373 -147 -530 -305 -115 -116 -160 -192 -160 -271 0 -45 4 -56 31 -81 27 -26 38 -29 93 -29 116 0 264 67 523 237 62 40 114 73 116 73 3 0 -1 -25 -8 -55 -24 -99 8 -160 96 -187 85 -25 246 24 486 147 l122 62 -20 -38 c-29 -57 -35 -119 -15 -157 32 -62 101 -76 222 -46 64 17 357 154 443 209 37 23 43 24 36 9 -15 -37 -18 -114 -5 -144 16 -39 56 -68 106 -76 89 -14 253 73 383 202 l73 74 72 0 c39 0 106 9 149 19 42 10 77 17 77 15 0 -1 -12 -25 -26 -54 -69 -138 -24 -240 114 -257 95 -11 299 55 522 168 63 32 115 57 117 56 1 -2 -2 -19 -6 -40 -27 -118 67 -199 212 -182 126 14 409 119 596 221 35 19 65 33 67 32 2 -2 -3 -26 -11 -53 -19 -62 -19 -89 1 -131 41 -85 164 -97 302 -28 60 29 98 58 172 132 l95 96 105 22 c220 47 419 118 647 231 135 66 223 129 209 151 -10 17 -23 15 -101 -19z m-5152 -110 c22 -12 37 -28 37 -41 0 -8 -154 -124 -265 -199 -251 -171 -471 -266 -491 -214 -20 50 131 221 281 320 173 114 365 172 438 134z m4248 -40 c23 -23 21 -56 -4 -108 -11 -23 -18 -26 -64 -26 -59 1 -83 16 -83 54 0 35 25 70 64 87 44 19 63 17 87 -7z m-2538 -40 c-16 -48 -10 -87 18 -122 l19 -25 -76 -72 c-84 -80 -201 -144 -251 -138 -45 5 -52 43 -19 113 34 75 177 219 255 258 30 15 58 27 62 27 4 0 0 -19 -8 -41z m102 -36 c-4 -11 -9 -13 -16 -6 -6 6 -6 19 2 39 12 28 13 28 17 6 2 -13 1 -31 -3 -39z m2225 -117 c17 -14 49 -29 71 -32 21 -4 39 -10 39 -13 0 -4 -19 -25 -42 -48 -86 -83 -211 -138 -257 -114 -49 27 -5 152 87 245 l47 48 12 -30 c7 -16 26 -41 43 -56z"/>
    <path d="M19250 7682 c-28 -14 -35 -23 -35 -47 0 -24 6 -33 33 -45 32 -14 33 -17 28 -59 -4 -25 -8 -46 -10 -48 -2 -2 -51 1 -109 8 -187 22 -279 -5 -485 -144 -120 -81 -191 -113 -287 -129 -40 -6 -253 -6 -645 1 -1500 28 -3746 61 -4203 61 l-288 0 -24 -25 c-29 -28 -31 -38 -10 -58 15 -16 -99 -13 1875 -37 448 -6 1207 -17 1685 -25 1376 -23 1597 -24 1675 -2 93 25 171 64 284 142 146 100 192 118 306 123 104 4 207 -10 555 -79 514 -102 1104 -255 1261 -328 112 -52 183 -138 184 -221 0 -52 -38 -120 -88 -155 -35 -24 -55 -30 -110 -33 -71 -4 -88 0 -299 77 -178 64 -307 85 -493 78 -211 -7 -338 -33 -712 -149 l-196 -60 -149 78 c-174 93 -167 89 -162 77 6 -15 182 -176 227 -207 69 -47 85 -48 228 -4 435 131 655 178 834 178 141 0 248 -20 433 -79 195 -63 269 -77 339 -62 68 15 127 50 172 103 42 49 56 91 56 174 0 142 -102 246 -317 324 -35 12 -63 24 -63 25 0 1 7 22 16 48 15 45 18 47 53 47 71 0 94 59 41 104 -58 48 -159 58 -202 19 -34 -31 -14 -71 50 -99 8 -4 -22 -94 -32 -94 -6 0 -72 17 -146 38 -74 22 -159 45 -187 51 -45 11 -53 16 -53 36 0 48 17 72 55 78 48 8 65 23 65 57 0 71 -159 120 -224 69 -35 -28 -31 -58 12 -84 30 -19 32 -23 27 -60 -3 -22 -10 -44 -14 -48 -5 -5 -95 11 -200 34 -207 47 -200 43 -182 109 5 18 16 26 46 32 21 5 44 13 52 19 38 32 -11 98 -89 120 -113 30 -201 -51 -112 -103 34 -20 36 -23 30 -62 -4 -23 -10 -44 -14 -47 -4 -3 -94 10 -199 30 -209 39 -204 36 -182 100 9 25 16 31 40 31 31 0 69 30 69 55 0 23 -48 63 -89 75 -52 14 -81 12 -121 -8z"/>
    <path d="M11270 6729 c-137 -16 -269 -76 -359 -162 -23 -23 -81 -92 -127 -154 -98 -130 -153 -180 -249 -227 -101 -49 -162 -61 -305 -60 -173 2 -204 11 -587 168 -405 166 -800 144 -1228 -69 -143 -71 -199 -106 -587 -367 -270 -181 -355 -232 -515 -306 -445 -205 -928 -220 -1288 -40 -167 84 -300 198 -398 342 -34 50 -120 220 -140 279 -4 9 -11 17 -18 17 -14 0 -3 -84 23 -170 45 -144 128 -279 239 -386 92 -88 176 -145 293 -199 439 -202 973 -155 1501 132 120 65 168 96 565 363 421 284 671 385 985 397 212 8 339 -18 585 -122 265 -111 410 -148 585 -147 281 1 471 106 635 352 91 136 215 228 355 264 84 21 245 36 392 36 203 0 140 37 -102 60 -122 11 -160 11 -255 -1z"/>
  </g>
</svg>
